<svg width="16" height="16" viewBox="0 0 16 16" fill="none" xmlns="http://www.w3.org/2000/svg">
<path fill-rule="evenodd" clip-rule="evenodd" d="M1.43506 2.66665C1.43506 2.35461 1.68802 2.10165 2.00006 2.10165H10.6667C10.9788 2.10165 11.2317 2.35461 11.2317 2.66665C11.2317 2.97869 10.9788 3.23165 10.6667 3.23165H2.00006C1.68802 3.23165 1.43506 2.97869 1.43506 2.66665ZM1.43506 5.33332C1.43506 5.02128 1.68802 4.76832 2.00006 4.76832H8.00006C8.3121 4.76832 8.56506 5.02128 8.56506 5.33332C8.56506 5.64536 8.3121 5.89832 8.00006 5.89832H2.00006C1.68802 5.89832 1.43506 5.64536 1.43506 5.33332ZM10.9339 4.93381C11.1545 4.71316 11.5123 4.71316 11.7329 4.93381L14.3996 7.60047C14.6202 7.82112 14.6202 8.17886 14.3996 8.3995C14.1789 8.62015 13.8212 8.62015 13.6005 8.3995L11.8984 6.69735V13.3333C11.8984 13.6454 11.6454 13.8983 11.3334 13.8983C11.0214 13.8983 10.7684 13.6454 10.7684 13.3333V6.69735L9.06624 8.3995C8.84559 8.62015 8.48786 8.62015 8.26721 8.3995C8.04656 8.17886 8.04656 7.82112 8.26721 7.60047L10.9339 4.93381ZM1.43506 7.99999C1.43506 7.68795 1.68802 7.43499 2.00006 7.43499H6.00006C6.3121 7.43499 6.56506 7.68795 6.56506 7.99999C6.56506 8.31203 6.3121 8.56499 6.00006 8.56499H2.00006C1.68802 8.56499 1.43506 8.31203 1.43506 7.99999Z" fill="#2A2A2A"/>
</svg>
