<svg width="30" height="30" viewBox="0 0 30 30" fill="none" xmlns="http://www.w3.org/2000/svg">
<rect width="30" height="30" rx="15" fill="#1F3D70"/>
<path fill-rule="evenodd" clip-rule="evenodd" d="M15.0001 10.1C15.3867 10.1 15.7001 10.4134 15.7001 10.8V14.3H19.2001C19.5867 14.3 19.9001 14.6134 19.9001 15C19.9001 15.3866 19.5867 15.7 19.2001 15.7H15.7001V19.2C15.7001 19.5866 15.3867 19.9 15.0001 19.9C14.6135 19.9 14.3001 19.5866 14.3001 19.2V15.7H10.8001C10.4135 15.7 10.1001 15.3866 10.1001 15C10.1001 14.6134 10.4135 14.3 10.8001 14.3H14.3001V10.8C14.3001 10.4134 14.6135 10.1 15.0001 10.1Z" fill="white"/>
</svg>
