<svg width="30" height="30" viewBox="0 0 30 30" fill="none" xmlns="http://www.w3.org/2000/svg">
<rect width="30" height="30" rx="15" fill="#4C618C"/>
<path fill-rule="evenodd" clip-rule="evenodd" d="M11.0048 11.005C11.2782 10.7316 11.7214 10.7316 11.9948 11.005L14.9998 14.01L18.0048 11.005C18.2782 10.7316 18.7214 10.7316 18.9948 11.005C19.2681 11.2784 19.2681 11.7216 18.9948 11.995L15.9898 15L18.9948 18.005C19.2681 18.2784 19.2681 18.7216 18.9948 18.995C18.7214 19.2683 18.2782 19.2683 18.0048 18.995L14.9998 15.9899L11.9948 18.995C11.7214 19.2683 11.2782 19.2683 11.0048 18.995C10.7315 18.7216 10.7315 18.2784 11.0048 18.005L14.0099 15L11.0048 11.995C10.7315 11.7216 10.7315 11.2784 11.0048 11.005Z" fill="white"/>
</svg>
