<svg width="40" height="40" viewBox="0 0 40 40" fill="none" xmlns="http://www.w3.org/2000/svg">
<rect width="40" height="40" rx="20" fill="#FFCD2E"/>
<path fill-rule="evenodd" clip-rule="evenodd" d="M11 14C11 12.3431 12.3431 11 14 11L26 11C27.6569 11 29 12.3431 29 14V26C29 27.6569 27.6569 29 26 29H14C12.3431 29 11 27.6569 11 26L11 14ZM23 13L17 13V22.382L19.5528 21.1056C19.8343 20.9648 20.1657 20.9648 20.4472 21.1056L23 22.382V13ZM15 13H14C13.4477 13 13 13.4477 13 14L13 26C13 26.5523 13.4477 27 14 27H26C26.5523 27 27 26.5523 27 26V14C27 13.4477 26.5523 13 26 13H25V24C25 24.3466 24.8205 24.6684 24.5257 24.8506C24.2309 25.0329 23.8628 25.0494 23.5528 24.8944L20 23.118L16.4472 24.8944C16.1372 25.0494 15.7691 25.0329 15.4743 24.8506C15.1795 24.6684 15 24.3466 15 24L15 13Z" fill="#1F1C61"/>
</svg>
