<svg width="40" height="40" viewBox="0 0 40 40" fill="none" xmlns="http://www.w3.org/2000/svg">
<rect width="40" height="40" rx="20" fill="#BE266A"/>
<path fill-rule="evenodd" clip-rule="evenodd" d="M26.3514 10.0638C26.7416 10.2102 27 10.5833 27 11V14.126C28.7252 14.57 30 16.1361 30 18C30 19.8638 28.7252 21.4299 27 21.874V25C27 25.4167 26.7416 25.7898 26.3514 25.9362C25.9613 26.0826 25.5212 25.9718 25.247 25.658C24.634 24.9565 23.5484 24.2834 22.0587 23.7864C21.4275 23.5758 20.7368 23.4014 20 23.2708V27.2402C20 28.7644 18.7644 30 17.2402 30C16.0738 30 15.0334 29.2668 14.6411 28.1684L14.6387 28.1616L12.6286 22.4027C11.0648 21.5587 10 19.9047 10 18C10 15.2386 12.2386 13 15 13H16.8321C17.5363 13 18.2202 12.9617 18.876 12.8898C18.8846 12.8887 18.8933 12.8878 18.902 12.8869C20.0562 12.7586 21.1228 12.5258 22.0587 12.2136C23.5484 11.7166 24.634 11.0435 25.247 10.342C25.5212 10.0282 25.9613 9.91732 26.3514 10.0638ZM18 14.9679C17.6159 14.9891 17.2262 15 16.8321 15H15C13.3431 15 12 16.3431 12 18C12 19.2392 12.7515 20.3051 13.8277 20.7626C14.1865 20.9151 14.582 21 15 21L16.8321 21C17.2262 21 17.6159 21.0109 18 21.0321V14.9679ZM20 21.243V14.757C20.9581 14.6058 21.8624 14.3874 22.6916 14.1108C23.5313 13.8307 24.3125 13.4845 25 13.0758L25 22.9242C24.3125 22.5154 23.5313 22.1693 22.6916 21.8892C21.8624 21.6125 20.9581 21.3941 20 21.243ZM27 19.7324C27.5978 19.3866 28 18.7403 28 18C28 17.2597 27.5978 16.6134 27 16.2675V19.7324ZM18 23.0355C17.618 23.0121 17.2283 23 16.8321 23L15 23C14.9851 23 14.9702 22.9999 14.9553 22.9998L16.5246 27.4957C16.5249 27.4966 16.5253 27.4975 16.5256 27.4984C16.6343 27.7993 16.92 28 17.2402 28C17.6598 28 18 27.6598 18 27.2402V23.0355Z" fill="white"/>
</svg>
