<svg width="40" height="40" viewBox="0 0 40 40" fill="none" xmlns="http://www.w3.org/2000/svg">
<rect width="40" height="40" rx="20" fill="#1F1C61"/>
<path fill-rule="evenodd" clip-rule="evenodd" d="M13.6801 15.0944C12.6271 16.449 12 18.1513 12 20C12 21.8487 12.6271 23.551 13.6801 24.9056L15.8284 22.7574C15.3049 21.967 15 21.0191 15 20C15 18.9809 15.3049 18.033 15.8284 17.2426L13.6801 15.0944ZM15.0944 13.6801L17.2426 15.8284C18.033 15.3049 18.9809 15 20 15C21.0191 15 21.967 15.3049 22.7574 15.8284L24.9056 13.6801C23.551 12.6271 21.8487 12 20 12C18.1513 12 16.449 12.6271 15.0944 13.6801ZM26.3199 15.0944L24.1716 17.2426C24.6951 18.033 25 18.9809 25 20C25 21.0191 24.6951 21.967 24.1716 22.7574L26.3199 24.9056C27.3729 23.551 28 21.8487 28 20C28 18.1513 27.3729 16.449 26.3199 15.0944ZM24.9056 26.3199L22.7574 24.1716C21.967 24.6951 21.0191 25 20 25C18.9809 25 18.033 24.6951 17.2426 24.1716L15.0944 26.3199C16.449 27.3729 18.1513 28 20 28C21.8487 28 23.551 27.3729 24.9056 26.3199ZM10 20C10 14.4772 14.4772 10 20 10C25.5228 10 30 14.4772 30 20C30 25.5228 25.5228 30 20 30C14.4772 30 10 25.5228 10 20ZM17 20C17 21.6569 18.3431 23 20 23C21.6569 23 23 21.6569 23 20C23 18.3431 21.6569 17 20 17C18.3431 17 17 18.3431 17 20Z" fill="white"/>
</svg>
