<svg width="24" height="24" viewBox="0 0 24 24" fill="none" xmlns="http://www.w3.org/2000/svg">
<path fill-rule="evenodd" clip-rule="evenodd" d="M2.3999 6.00001C2.3999 4.67452 3.47442 3.60001 4.7999 3.60001L19.1999 3.60001C20.5254 3.60001 21.5999 4.67452 21.5999 6.00001V18C21.5999 19.3255 20.5254 20.4 19.1999 20.4H4.7999C3.47442 20.4 2.3999 19.3255 2.3999 18L2.3999 6.00001ZM6.35137 7.55148C6.82 7.08285 7.5798 7.08285 8.04843 7.55148L11.6484 11.1515C12.1171 11.6201 12.1171 12.3799 11.6484 12.8485L8.04843 16.4485C7.5798 16.9172 6.82 16.9172 6.35137 16.4485C5.88274 15.9799 5.88274 15.2201 6.35137 14.7515L9.10285 12L6.35137 9.24853C5.88274 8.77991 5.88274 8.02011 6.35137 7.55148ZM13.1999 14.4C12.5372 14.4 11.9999 14.9373 11.9999 15.6C11.9999 16.2627 12.5372 16.8 13.1999 16.8H16.7999C17.4626 16.8 17.9999 16.2627 17.9999 15.6C17.9999 14.9373 17.4626 14.4 16.7999 14.4H13.1999Z" fill="white"/>
</svg>
