<svg width="40" height="40" viewBox="0 0 40 40" fill="none" xmlns="http://www.w3.org/2000/svg">
<rect width="40" height="40" rx="20" fill="#793196"/>
<path fill-rule="evenodd" clip-rule="evenodd" d="M16.1707 12C16.5825 10.8348 17.6938 10 19 10L21 10C22.3062 10 23.4175 10.8348 23.8293 12H25C26.6569 12 28 13.3431 28 15V27C28 28.6569 26.6569 30 25 30H15C13.3431 30 12 28.6569 12 27L12 15C12 13.3431 13.3431 12 15 12H16.1707ZM16.1707 14H15C14.4477 14 14 14.4477 14 15L14 27C14 27.5523 14.4477 28 15 28H25C25.5523 28 26 27.5523 26 27V15C26 14.4477 25.5523 14 25 14H23.8293C23.4175 15.1652 22.3062 16 21 16H19C17.6938 16 16.5825 15.1652 16.1707 14ZM19 12C18.4477 12 18 12.4477 18 13C18 13.5523 18.4477 14 19 14H21C21.5523 14 22 13.5523 22 13C22 12.4477 21.5523 12 21 12H19ZM23.7071 19.2929C24.0976 19.6834 24.0976 20.3166 23.7071 20.7071L19.7071 24.7071C19.3166 25.0976 18.6834 25.0976 18.2929 24.7071L16.2929 22.7071C15.9024 22.3166 15.9024 21.6834 16.2929 21.2929C16.6834 20.9024 17.3166 20.9024 17.7071 21.2929L19 22.5858L22.2929 19.2929C22.6834 18.9024 23.3166 18.9024 23.7071 19.2929Z" fill="white"/>
</svg>
