<svg width="24" height="24" viewBox="0 0 24 24" fill="none" xmlns="http://www.w3.org/2000/svg">
<path fill-rule="evenodd" clip-rule="evenodd" d="M3.6001 20.4C3.6001 19.7373 4.13736 19.2 4.8001 19.2H19.2001C19.8628 19.2 20.4001 19.7373 20.4001 20.4C20.4001 21.0627 19.8628 21.6 19.2001 21.6H4.8001C4.13736 21.6 3.6001 21.0627 3.6001 20.4ZM7.55157 8.04852C7.08294 7.57989 7.08294 6.82009 7.55157 6.35147L11.1516 2.75147C11.3766 2.52642 11.6818 2.39999 12.0001 2.39999C12.3184 2.39999 12.6236 2.52642 12.8486 2.75147L16.4486 6.35147C16.9173 6.82009 16.9173 7.57989 16.4486 8.04852C15.98 8.51715 15.2202 8.51715 14.7516 8.04852L13.2001 6.49705L13.2001 15.6C13.2001 16.2627 12.6628 16.8 12.0001 16.8C11.3374 16.8 10.8001 16.2627 10.8001 15.6L10.8001 6.49705L9.24863 8.04852C8.78 8.51715 8.0202 8.51715 7.55157 8.04852Z" fill="white"/>
</svg>
