<svg width="14" height="14" viewBox="0 0 14 14" fill="none" xmlns="http://www.w3.org/2000/svg">
<path fill-rule="evenodd" clip-rule="evenodd" d="M1.95442 6.99996C2.67901 9.08958 4.66508 10.5889 7.00012 10.5889C9.33514 10.5889 11.3212 9.0896 12.0458 7C11.3212 4.91038 9.33514 3.41102 7.0001 3.41102C4.66508 3.41102 2.67902 4.91036 1.95442 6.99996ZM0.96217 6.85182C1.76835 4.28506 4.16604 2.42227 7.0001 2.42227C9.83418 2.42227 12.2319 4.28508 13.038 6.85186C13.0683 6.9483 13.0683 7.05171 13.038 7.14814C12.2319 9.7149 9.83418 11.5777 7.00012 11.5777C4.16604 11.5777 1.76834 9.71488 0.962169 7.1481C0.931881 7.05166 0.931881 6.94826 0.96217 6.85182ZM6.99985 5.74436C6.30639 5.74436 5.74422 6.30652 5.74422 6.99998C5.74422 7.69344 6.30639 8.25561 6.99985 8.25561C7.69331 8.25561 8.25547 7.69344 8.25547 6.99998C8.25547 6.30652 7.69331 5.74436 6.99985 5.74436ZM4.75547 6.99998C4.75547 5.76045 5.76031 4.75561 6.99985 4.75561C8.23938 4.75561 9.24422 5.76045 9.24422 6.99998C9.24422 8.23951 8.23938 9.24436 6.99985 9.24436C5.76031 9.24436 4.75547 8.23951 4.75547 6.99998Z" fill="#2A2A2A"/>
</svg>
