<svg width="14" height="15" viewBox="0 0 14 15" fill="none" xmlns="http://www.w3.org/2000/svg">
<path fill-rule="evenodd" clip-rule="evenodd" d="M1.40027 1.90041C1.59334 1.70735 1.90636 1.70735 2.09942 1.90041L3.92021 3.7212C4.83202 3.21227 5.88279 2.92228 7.0001 2.92228C9.83418 2.92228 12.2319 4.78509 13.038 7.35187C13.0683 7.44831 13.0683 7.55172 13.038 7.64815C12.6525 8.8756 11.9037 9.94101 10.9181 10.7191L12.5994 12.4004C12.7925 12.5935 12.7925 12.9065 12.5994 13.0996C12.4064 13.2926 12.0933 13.2926 11.9003 13.0996L1.40027 2.59957C1.20721 2.4065 1.20721 2.09348 1.40027 1.90041ZM4.65244 4.45343L5.80124 5.60223C6.14797 5.38288 6.55929 5.25562 6.99985 5.25562C8.23938 5.25562 9.24422 6.26046 9.24422 7.49999C9.24422 7.94055 9.11695 8.35186 8.8976 8.69859L10.2132 10.0142C11.0507 9.38217 11.6957 8.50947 12.0458 7.50001C11.3212 5.41039 9.33513 3.91103 7.0001 3.91103C6.15712 3.91103 5.36064 4.10608 4.65244 4.45343ZM6.53292 6.33391L8.16592 7.96691C8.22374 7.82262 8.25547 7.66512 8.25547 7.49999C8.25547 6.80653 7.69331 6.24437 6.99985 6.24437C6.83472 6.24437 6.67721 6.27609 6.53292 6.33391ZM2.64401 5.33896C2.86173 5.50373 2.90466 5.81379 2.7399 6.03151C2.40591 6.47285 2.13911 6.96739 1.95442 7.49997C2.67901 9.58959 4.66508 11.0889 7.00012 11.0889C7.34277 11.0889 7.67745 11.0567 8.00141 10.9953C8.26967 10.9444 8.52837 11.1207 8.57924 11.3889C8.63011 11.6572 8.45388 11.9159 8.18563 11.9667C7.80124 12.0396 7.40489 12.0777 7.00012 12.0777C4.16604 12.0777 1.76834 10.2149 0.962169 7.64811C0.931881 7.55167 0.931881 7.44827 0.96217 7.35183C1.18184 6.65244 1.51948 6.00569 1.95147 5.43485C2.11623 5.21713 2.42629 5.1742 2.64401 5.33896Z" fill="#2A2A2A"/>
</svg>
