<svg width="40" height="40" viewBox="0 0 40 40" fill="none" xmlns="http://www.w3.org/2000/svg">
<rect width="40" height="40" rx="20" fill="#4282FE"/>
<path fill-rule="evenodd" clip-rule="evenodd" d="M30 20C30 20.3788 29.786 20.725 29.4472 20.8944L11.4472 29.8944C11.1022 30.067 10.6887 30.0256 10.3846 29.7882C10.0805 29.5508 9.94013 29.1597 10.0238 28.7831L11.9756 20L10.0238 11.2169C9.94013 10.8404 10.0805 10.4492 10.3846 10.2118C10.6887 9.97439 11.1022 9.93306 11.4472 10.1056L29.4472 19.1056C29.786 19.275 30 19.6212 30 20ZM13.8022 21L12.432 27.166L26.7639 20L12.432 12.834L13.8022 19H21C21.5523 19 22 19.4477 22 20C22 20.5523 21.5523 21 21 21H13.8022Z" fill="white"/>
</svg>
