<svg width="48" height="48" viewBox="0 0 48 48" fill="none" xmlns="http://www.w3.org/2000/svg">
<path fill-rule="evenodd" clip-rule="evenodd" d="M22 6C17.5817 6 14 9.58172 14 14C14 14.6058 14.067 15.1935 14.1931 15.757C14.4343 16.8346 13.7566 17.9037 12.6792 18.1454C10.0003 18.7463 8 21.1419 8 24C8 27.3137 10.6863 30 14 30C15.1046 30 16 30.8954 16 32C16 33.1046 15.1046 34 14 34C8.47715 34 4 29.5228 4 24C4 19.8871 6.48146 16.3574 10.0277 14.8207C10.0093 14.5493 10 14.2756 10 14C10 7.37258 15.3726 2 22 2C27.254 2 31.716 5.3749 33.3425 10.0743C39.338 10.7417 44 15.8264 44 22C44 27.8078 39.8761 32.648 34.3979 33.76C33.3154 33.9797 32.2597 33.2803 32.04 32.1978C31.8202 31.1153 32.5196 30.0597 33.6021 29.8399C37.2529 29.0989 40 25.868 40 22C40 17.5817 36.4183 14 32 14C31.9464 14 31.8929 14.0005 31.8395 14.0016C30.8736 14.0205 30.0322 13.3462 29.8403 12.3994C29.0998 8.74791 25.8686 6 22 6ZM22.5858 18.5858C23.3668 17.8047 24.6332 17.8047 25.4142 18.5858L31.4142 24.5858C32.1953 25.3668 32.1953 26.6332 31.4142 27.4142C30.6332 28.1953 29.3668 28.1953 28.5858 27.4142L26 24.8284L26 44C26 45.1046 25.1046 46 24 46C22.8954 46 22 45.1046 22 44L22 24.8284L19.4142 27.4142C18.6332 28.1953 17.3668 28.1953 16.5858 27.4142C15.8047 26.6332 15.8047 25.3668 16.5858 24.5858L22.5858 18.5858Z" fill="#4282FE"/>
</svg>
